<svg width="1400" height="317" viewBox="0 0 1400 317" fill="none" xmlns="http://www.w3.org/2000/svg">
<path d="M114.32 315.64C54.928 315.64 33.12 281.768 33.12 237.224V144.888H0.64V81.784H33.12V55.8L116.64 18.68V81.784H172.32V144.888H116.64V225.16C116.64 237.224 122.672 243.256 133.344 243.256C143.552 243.256 155.616 235.832 163.04 224.232L185.776 286.872C176.032 298.008 151.44 315.64 114.32 315.64ZM292.471 60.904H208.951V0.119992H292.471V60.904ZM292.471 311H208.951V81.784H292.471V311ZM413.002 311H329.482V81.784H413.002V149.992C419.498 111.944 440.378 77.144 488.17 77.144C530.858 77.144 556.842 103.592 556.842 150.456V311H473.322V182.936C473.322 155.096 468.218 140.248 443.162 140.248C419.034 140.248 413.002 149.064 413.002 186.184V311ZM643.324 316.104C609.916 316.104 583.468 299.4 583.468 258.104C583.468 220.984 604.348 200.568 655.388 184.792L717.1 165.768C714.78 152.776 707.82 147.208 689.26 147.208C662.812 147.208 633.116 161.592 614.092 182.936L576.972 121.688C605.74 95.704 646.108 77.144 693.9 77.144C752.828 77.144 789.02 105.912 789.02 164.84V233.976C789.02 244.184 791.804 247.432 800.156 247.432H813.612V311H766.284C740.3 311 714.78 299.864 714.78 267.384V249.752C707.82 279.448 690.188 316.104 643.324 316.104ZM657.708 246.504C657.708 253.928 663.276 258.104 675.34 258.104C702.716 258.104 714.78 247.432 714.78 223.768V216.808L677.196 230.264C661.42 235.832 657.708 240.472 657.708 246.504ZM1081.53 311H976.2L897.32 81.784H990.12L1012.86 174.12L1029.56 267.384L1045.8 174.12L1068.54 81.784H1160.41L1081.53 311ZM1276.37 315.64C1203.06 315.64 1157.12 264.6 1157.12 196.392C1157.12 128.184 1203.06 77.144 1276.37 77.144C1353.4 77.144 1399.33 128.184 1399.33 196.392C1399.33 264.6 1353.4 315.64 1276.37 315.64ZM1278.23 248.824C1299.57 248.824 1314.42 236.296 1314.42 196.392C1314.42 156.488 1299.57 143.96 1278.23 143.96C1256.88 143.96 1242.04 156.488 1242.04 196.392C1242.04 236.296 1256.88 248.824 1278.23 248.824Z" fill="black"/>
</svg>
